<svg xmlns="http://www.w3.org/2000/svg" viewBox="0 0 360.8359 125" width="360.836px" height="125px">
  <path d="M 122.161 120.503 C 127.458 123.501 133.317 125 139.74 125 C 146.228 125 152.121 123.501 157.418 120.503 C 162.715 117.439 166.886 113.208 169.932 107.812 C 172.977 102.416 174.5 96.287 174.5 89.426 C 174.5 82.564 172.977 76.435 169.932 71.039 C 166.886 65.643 154.715 57.446 149.418 54.448 L 70 0 L 108.548 101.812 C 111.5 112 116.864 117.439 122.161 120.503 Z" stroke="#cc0000" stroke-width="5" class="svelte-soblra" style="fill: rgb(255, 0, 0);" transform="matrix(0.9999999999999999, 0, 0, 0.9999999999999999, 0, 0)"></path>
  <text style="fill: rgb(255, 255, 255); font-family: Futura; font-size: 90px; stroke: rgb(0, 0, 0); white-space: pre;" x="0" y="93.511" transform="matrix(0.9999999999999999, 0, 0, 0.9999999999999999, 0, 0)">C</text>
  <text style="fill: rgb(255, 255, 255); font-family: Futura; font-size: 90px; stroke: rgb(0, 0, 0); white-space: pre;" x="180" y="93.511" transform="matrix(0.9999999999999999, 0, 0, 0.9999999999999999, 0, 0)">MET</text>
</svg>